HIERARCHY
ROOT Hips
{
    OFFSET 0.000000 0.000000 0.000000
    CHANNELS 6 Xposition Yposition Zposition Zrotation Xrotation Yrotation
    JOINT Spine
    {
        OFFSET -0.000000 14.517291 0.000000
        CHANNELS 3 Zrotation Xrotation Yrotation
        JOINT Spine1
        {
            OFFSET -0.000000 37.558300 0.000000
            CHANNELS 3 Zrotation Xrotation Yrotation
            JOINT Neck
            {
                OFFSET -0.000000 37.404057 3.400369
                CHANNELS 3 Zrotation Xrotation Yrotation
                JOINT Head
                {
                    OFFSET -0.000000 24.785618 -3.540803
                    CHANNELS 3 Zrotation Xrotation Yrotation
                    End Site
                    {
                        OFFSET -0.000000 35.408028 0.000000
                    }
                }
            }
            JOINT LeftShoulder
            {
                OFFSET 6.992933 33.973492 -0.192664
                CHANNELS 3 Zrotation Xrotation Yrotation
                JOINT LeftArm
                {
                    OFFSET 21.527611 0.000000 0.000000
                    CHANNELS 3 Zrotation Xrotation Yrotation
                    JOINT LeftForeArm
                    {
                        OFFSET 56.353916 0.000000 0.000000
                        CHANNELS 3 Zrotation Xrotation Yrotation
                        JOINT LeftHand
                        {
                            OFFSET 47.774071 0.000000 0.000000
                            CHANNELS 3 Zrotation Xrotation Yrotation
                            End Site
                            {
                                OFFSET 26.556021 0.000000 0.000000
                            }
                        }
                    }
                }
            }
            JOINT RightShoulder
            {
                OFFSET -7.065357 33.973492 -0.192664
                CHANNELS 3 Zrotation Xrotation Yrotation
                JOINT RightArm
                {
                    OFFSET -21.527611 0.000000 0.000000
                    CHANNELS 3 Zrotation Xrotation Yrotation
                    JOINT RightForeArm
                    {
                        OFFSET -56.353916 0.000000 0.000000
                        CHANNELS 3 Zrotation Xrotation Yrotation
                        JOINT RightHand
                        {
                            OFFSET -47.774071 0.000000 0.000000
                            CHANNELS 3 Zrotation Xrotation Yrotation
                            End Site
                            {
                                OFFSET -26.556021 0.000000 0.000000
                            }
                        }
                    }
                }
            }
        }
    }
    JOINT LeftUpLeg
    {
        OFFSET 17.704014 0.000000 0.000000
        CHANNELS 3 Zrotation Xrotation Yrotation
        JOINT LeftLeg
        {
            OFFSET -0.000000 -81.181816 0.000000
            CHANNELS 3 Zrotation Xrotation Yrotation
            JOINT LeftFoot
            {
                OFFSET -0.000000 -62.821102 0.000000
                CHANNELS 3 Zrotation Xrotation Yrotation
                JOINT LeftToeBase
                {
                    OFFSET -0.000000 -11.507608 26.556021
                    CHANNELS 3 Zrotation Xrotation Yrotation
                    End Site
                    {
                        OFFSET -0.000000 0.000000 7.081605
                    }
                }
            }
        }
    }
    JOINT RightUpLeg
    {
        OFFSET -17.704014 0.000000 0.000000
        CHANNELS 3 Zrotation Xrotation Yrotation
        JOINT RightLeg
        {
            OFFSET -0.000000 -81.181816 0.000000
            CHANNELS 3 Zrotation Xrotation Yrotation
            JOINT RightFoot
            {
                OFFSET -0.000000 -62.821102 0.000000
                CHANNELS 3 Zrotation Xrotation Yrotation
                JOINT RightToeBase
                {
                    OFFSET -0.000000 -11.507608 26.556021
                    CHANNELS 3 Zrotation Xrotation Yrotation
                    End Site
                    {
                        OFFSET -0.000000 0.000000 7.081605
                    }
                }
            }
        }
    }
}
MOTION
Frames:    4
Frame Time:    0.008333
-8.535758    151.700241    -11.978984    -0.631996    0.761832    24.582642    0.645825    1.995293    13.278717    -4.962651    -1.357152    4.371750    0.247432    0.519298    -12.694210    10.753016    2.458269    -11.971492    2.140581    1.987455    -7.434237    -42.240513    19.734695    -45.374165    -11.937308    -14.950076    -131.737244    3.515635    -39.097466    -5.590724    -9.085674    2.774541    8.345311    27.080545    -5.963176    63.210178    -20.226442    -42.052631    3.681605    16.396927    -37.541977    35.053574    0.089148    -34.913841    -30.437206    -11.048780    23.347599    -22.165741    -9.887518    3.004838    30.070305    0.000000    0.000000    0.000000    4.722948    12.404294    -14.934699    2.920468    22.329262    -0.990152    -2.841381    -29.927200    -7.255274    0.000000    0.000000    0.000000    
-8.488862    151.689987    -11.993027    -0.624977    0.750620    24.548229    0.623330    1.973557    13.228753    -4.941412    -1.317101    4.356894    0.216981    0.545080    -12.660419    10.784639    2.431103    -11.925364    2.105093    2.012311    -7.437071    -42.211048    19.730667    -45.385365    -11.932762    -14.975584    -131.737381    3.543874    -39.110367    -5.582613    -9.135957    2.798603    8.295969    26.871883    -6.013353    62.960148    -19.460869    -41.822083    4.241718    16.537535    -37.200253    35.077415    0.083750    -34.908157    -30.426977    -11.056845    23.375484    -22.151228    -9.853563    2.992670    30.055847    0.000000    0.000000    0.000000    4.693561    12.424055    -14.923409    2.918866    22.328535    -0.973953    -2.838833    -29.963085    -7.249547    0.000000    0.000000    0.000000    
-8.442588    151.685471    -12.006209    -0.624096    0.735596    24.509398    0.589449    1.971627    13.199970    -4.913754    -1.299942    4.348162    0.208167    0.559823    -12.642898    10.808103    2.405877    -11.900564    2.083519    2.040032    -7.441743    -42.188007    19.762297    -45.414219    -11.918518    -15.006246    -131.742249    3.496967    -39.110077    -5.613010    -9.171495    2.799487    8.214698    26.677151    -6.035686    62.699322    -18.711088    -41.557018    4.808186    16.689371    -36.815281    35.158596    0.088907    -34.898529    -30.409760    -11.065212    23.399292    -22.135118    -9.858225    2.960567    30.072098    0.000000    0.000000    0.000000    4.671566    12.446738    -14.877017    2.923112    22.316654    -0.978183    -2.831826    -29.979761    -7.242346    0.000000    0.000000    0.000000    
-8.393095    151.682281    -12.019993    -0.628634    0.724988    24.469582    0.587148    1.931409    13.164193    -4.902641    -1.234346    4.339070    0.153011    0.607944    -12.627021    10.895961    2.341029    -11.859259    2.046678    2.038818    -7.470749    -42.166996    19.775286    -45.390888    -11.893899    -15.043171    -131.748795    3.492119    -39.097588    -5.628952    -9.230024    2.817590    8.154852    26.509537    -6.075484    62.477489    -18.103102    -41.179420    5.231847    17.111719    -36.240921    35.357880    0.103200    -34.894516    -30.419203    -11.092196    23.409985    -22.085945    -9.831769    2.952313    30.049322    0.000000    0.000000    0.000000    4.649334    12.457049    -14.840911    2.930414    22.319347    -0.986967    -2.834647    -29.989931    -7.236056    0.000000    0.000000    0.000000    
